<?xml version="1.0" encoding="UTF-8" standalone="no"?>
<svg
   xmlns:dc="http://purl.org/dc/elements/1.1/"
   xmlns:cc="http://creativecommons.org/ns#"
   xmlns:rdf="http://www.w3.org/1999/02/22-rdf-syntax-ns#"
   xmlns:svg="http://www.w3.org/2000/svg"
   xmlns="http://www.w3.org/2000/svg"
   xmlns:sodipodi="http://sodipodi.sourceforge.net/DTD/sodipodi-0.dtd"
   xmlns:inkscape="http://www.inkscape.org/namespaces/inkscape"
   width="800pt"
   height="300pt"
   viewBox="0 0 500 700"
   version="1.1"
   id="svg2"
   inkscape:version="0.91 r13725"
   sodipodi:docname="felicity.svg">
  <metadata
     id="metadata28">
    <rdf:RDF>
      <cc:Work
         rdf:about="">
        <dc:format>image/svg+xml</dc:format>
        <dc:type
           rdf:resource="http://purl.org/dc/dcmitype/StillImage" />
        <dc:title></dc:title>
      </cc:Work>
    </rdf:RDF>
  </metadata>
  <defs
     id="defs26" />
  <sodipodi:namedview
     pagecolor="#ffffff"
     bordercolor="#666666"
     borderopacity="1"
     objecttolerance="10"
     gridtolerance="10"
     guidetolerance="10"
     inkscape:pageopacity="0"
     inkscape:pageshadow="2"
     inkscape:window-width="1280"
     inkscape:window-height="666"
     id="namedview24"
     showgrid="false"
     inkscape:zoom="0.3776"
     inkscape:cx="525.285"
     inkscape:cy="434.77182"
     inkscape:window-x="-8"
     inkscape:window-y="-8"
     inkscape:window-maximized="1"
     inkscape:current-layer="svg2" />
  <style
     type="text/css"
     id="style4">
*{
  fill-opacity: 0;
  transition: fill-opacity 1s;
}
.finished *{
  fill-opacity: 1;
}
</style>
  <path
     style="fill:#060807;fill-rule:evenodd;stroke:#060807;stroke-width:3.87501788;stroke-linecap:round;stroke-linejoin:round;stroke-miterlimit:4;stroke-dasharray:none;stroke-opacity:1"
     d="m -457.96662,119.85659 c 0,0 -21.00259,-5.17315 -42.19894,-4.70814 -8.95129,0.155 -17.92196,0.56187 -26.85387,-0.17438 10.13317,-6.39378 21.95197,-9.18379 33.42203,-12.14818 21.66135,-5.425025 44.52395,-6.510031 66.4178,-1.76313 15.84883,3.17751 30.69015,9.82317 45.16333,16.83695 33.24766,15.90694 64.59656,35.96016 99.58796,48.0696 3.85565,-27.91951 9.20316,-56.20714 22.08761,-81.530381 7.80815,-15.054444 19.54946,-29.488886 36.27016,-34.778285 15.4807,-5.270024 32.39516,-0.368126 45.91897,7.846911 8.48628,5.32815 16.91445,11.79943 21.48697,20.983222 8.33129,18.522585 8.85441,40.648933 0.11622,59.113393 -11.08255,24.33512 -32.87953,41.71457 -55.87775,54.23088 -1.45313,53.37837 -7.82754,106.40798 -13.02006,159.49573 -1.12376,12.03193 -2.53814,24.02512 -2.80939,36.11517 13.91131,1.56939 27.91951,0.0388 41.50144,-3.11939 1.20125,-25.84637 4.5144,-53.02962 19.64633,-74.84597 10.65631,-15.98445 29.1789,-26.602 48.51523,-26.602 13.44631,-0.0194 28.655761,-0.42625 39.622071,8.66067 10.8888,9.55191 11.45067,25.67199 8.46691,38.84705 -5.46378,28.69451 -32.375781,50.66586 -61.360921,51.73149 0.77501,15.3257 1.68564,31.11639 7.9438,45.35708 5.25064,12.82631 19.22009,20.11135 32.453271,21.25448 16.99195,-1.47251 30.690142,-13.69819 41.268942,-26.15637 14.99632,-18.17383 25.18762,-39.69956 33.84828,-61.45778 1.76313,-4.72753 3.8169,-9.53255 3.72002,-14.66695 -6.04503,-76.3766 -2.80939,-153.58633 10.3850401,-229.07168 C 3.0248531,90.03833 10.038643,62.331953 24.899333,38.461843 34.470633,23.097397 48.653203,9.3410837 66.768903,5.1754391 81.377722,2.0366747 98.621552,4.8460626 108.89035,16.471116 c 10.44318,13.175062 11.99318,30.961393 11.60568,47.178343 -1.24,29.372635 -9.49379,57.989641 -20.09198,85.231021 -14.628188,36.25078 -33.945147,71.28095 -61.128397,99.68483 -3.02252,2.73188 -4.2819,6.6069 -4.03002,10.63692 -0.25188,41.21082 0.62001,82.5185 4.47564,123.57433 1.72439,16.62382 3.66189,33.34453 8.25379,49.46459 1.99565,6.41316 4.3594,13.48507 10.21068,17.45697 10.09443,0.29061 17.708829,-7.96318 24.121979,-14.76382 19.142588,-22.55261 30.167028,-50.60774 39.738318,-78.27537 2.94501,-8.97067 6.25815,-17.98008 6.97503,-27.49324 1.66626,-19.93698 3.11939,-39.97082 6.60691,-59.69466 1.37563,-9.97817 10.55942,-18.52259 20.82822,-17.99945 7.24628,1.1625 12.84568,6.56815 17.8057,11.62505 6.83941,7.09128 11.25692,17.12757 9.20317,27.10574 -5.94815,35.30142 -8.87379,71.04846 -10.6563,106.77613 -0.52313,12.03192 -2.73189,24.62574 1.72439,36.21204 2.63501,7.2269 8.83504,13.91131 16.95319,14.33756 8.19567,0.21313 15.53882,-4.55314 21.27386,-9.97817 9.39691,-9.16442 15.96507,-20.75072 21.81634,-32.37577 2.30564,-5.03753 5.15378,-10.19129 4.9019,-15.90695 -1.43376,-24.62574 0.17438,-49.60023 6.27753,-73.54785 4.9019,-18.2707 13.50444,-37.12266 29.97327,-47.70146 15.03507,-9.84255 34.41016,-9.78442 51.11148,-4.72753 11.70255,3.60377 24.25761,8.75755 30.92264,19.66573 6.29691,10.30754 5.30877,23.1726 1.91813,34.27453 -2.22813,6.89753 -4.6694,14.12444 -9.86192,19.41384 -3.60375,-0.27125 -7.03315,-1.53063 -10.46255,-2.49939 3.37128,-14.08569 8.58317,-28.83014 5.05691,-43.38083 -1.97626,-6.87816 -10.01692,-14.29882 -17.39884,-10.40442 -9.06754,4.49502 -14.2988,13.85318 -18.15445,22.78511 -7.44004,18.03821 -10.30754,37.60704 -11.39256,56.96275 -0.73625,20.01448 0.29063,40.55207 7.14941,59.53966 3.33252,8.46691 8.31191,17.82508 17.53445,20.84759 8.21505,1.84064 16.75946,-0.0776 24.6645,-2.53813 20.03384,-6.80066 36.44454,-21.58385 48.82523,-38.40142 3.29375,-3.9719 2.44125,-9.37755 2.49938,-14.14382 -1.25938,-35.86329 1.82125,-71.70722 6.31627,-107.2605 1.06563,-6.89754 1.78252,-14.55069 6.82004,-19.89821 5.25064,-6.1419 14.99632,-8.81567 22.14573,-4.39816 8.60254,5.30879 16.08132,13.13632 19.54946,22.76574 2.28626,6.39378 0.96875,13.27194 -0.0776,19.80135 -6.49065,38.3433 -8.60254,77.24847 -10.61755,116.03741 -0.58124,11.10191 0.91063,24.08322 10.21068,31.52326 6.8394,5.5994 16.7207,3.87502 23.52136,-0.85251 12.40006,-8.42816 20.4601,-21.62259 27.16388,-34.72015 8.58316,-17.20508 14.62819,-35.55329 19.80133,-54.03713 3.75877,-12.10942 0.38751,-24.74198 0.34876,-37.08392 -2.57689,-45.78333 2.96438,-91.43105 7.57566,-136.88501 -10.30754,-3.93314 -20.67322,-8.29253 -31.79452,-9.08692 -6.91691,-0.46499 -13.79507,-1.14312 -20.55698,-2.65437 2.36376,-4.74691 4.01064,-11.45068 9.93943,-12.84569 15.1707,-3.37126 31.15514,-1.35626 45.43458,4.57252 6.4519,-37.70392 13.48507,-76.182851 31.36827,-110.418634 8.25379,-15.248195 20.09196,-30.903268 37.78142,-35.262663 9.16442,-1.608131 20.57635,-2.383136 27.45451,5.173148 9.16441,9.39692 8.66067,23.695735 7.67253,35.843916 -2.82876,23.695735 -10.92755,46.364593 -19.70446,68.432813 -8.64129,21.64197 -19.12321,42.4702 -29.77952,63.18216 23.81199,8.44755 49.98774,8.7963 74.49722,3.29377 19.62697,-4.51439 38.80831,-13.95006 51.57649,-29.95388 2.96439,-4.22377 7.69191,-6.16128 12.5938,-7.22691 0.44564,6.8394 1.18189,14.51194 -3.58438,20.13072 -14.14382,18.44508 -37.2583,26.75699 -59.01652,32.31765 -26.64075,5.87064 -55.12214,9.24192 -81.64663,1.0075 -5.40565,51.63461 -7.09128,103.8311 -2.51876,155.60134 1.87938,18.91009 4.28189,37.89767 9.70692,56.16839 2.40251,7.5369 5.34752,15.98444 12.7488,20.01446 10.67568,6.5294 24.70324,4.68878 34.64267,-2.36376 14.78319,-10.28817 24.47073,-26.23387 32.06577,-42.21832 2.94501,-4.55314 -1.49188,-8.95129 -3.25502,-12.98131 -11.8963,-20.36322 -12.71005,-44.91145 -10.79192,-67.81281 2.4025,-23.21135 8.04066,-46.09333 16.08132,-67.98719 3.72003,-10.55942 15.73257,-18.65821 26.93138,-15.22882 11.31505,3.77814 21.83572,14.37632 20.84758,27.04763 -0.62,10.90817 -1.06562,21.87446 -3.21625,32.60827 -3.66189,18.05758 -3.44878,36.58016 -3.39064,54.909 0.32937,15.4032 0.96875,31.15515 5.92877,45.89959 1.80188,4.5919 4.24315,10.61755 9.8813,11.31505 9.41629,1.18188 17.59258,-5.23127 23.46323,-11.8963 9.39692,-10.94693 16.99195,-23.30823 24.54823,-35.57266 4.5919,-7.01379 5.94816,-15.44196 6.64567,-23.63762 3.62313,-39.52518 3.99126,-79.28287 8.25379,-118.74992 0.92999,-9.12567 2.88688,-18.13508 6.2194,-26.6795 16.04257,3.46814 31.98827,10.7338 42.56706,23.69574 4.92128,5.83189 7.20754,13.54318 6.74254,21.13822 -1.04626,43.96208 -2.8094,87.92416 -4.53378,131.86685 -1.24,21.37073 -1.89875,42.78021 -1.24,64.18968 28.03576,4.39815 53.04899,18.58071 78.0041,31.27139 30.94202,16.44946 62.1165,34.06141 96.81732,41.1527 17.8638,3.77813 37.1421,2.46063 53.5334,-6.06441 13.5626,-6.08378 24.8195,-16.52696 39.0408,-21.2351 -6.3356,10.36568 -16.4688,17.49571 -26.4082,24.08324 -23.5989,15.03506 -51.1309,23.83135 -79.0117,25.84636 -27.49322,0.77501 -53.43647,-10.36566 -78.02347,-21.37071 -28.48137,-12.96195 -55.12211,-29.48889 -83.29349,-43.0127 -0.27125,48.59272 -0.93001,97.41794 -8.66067,145.48754 -4.34002,29.31451 -18.36759,58.20277 -41.96644,76.72536 -19.64634,15.34507 -47.02334,19.78197 -70.5447,11.52818 -12.59382,-4.37877 -25.55575,-12.05132 -30.74827,-24.97449 -6.9169,-17.76696 -7.16879,-37.2583 -5.65752,-56.01339 3.58439,-32.39515 15.42256,-63.3953 30.98076,-91.8573 15.82945,-28.73326 36.01829,-55.00588 59.52028,-77.88785 4.76627,-3.87502 3.93314,-10.32693 4.01064,-15.77133 -0.29063,-14.12444 0.155,-28.22951 -0.5425,-42.3152 -11.66381,16.15883 -24.41261,34.70079 -45.26022,39.13769 -18.03821,4.16564 -34.97202,-5.6769 -48.55397,-16.50758 -9.86191,21.27384 -21.7001,42.99332 -41.38518,56.73026 -13.34944,9.41629 -31.05827,12.14818 -46.57771,6.87816 -19.49134,-6.52941 -35.97954,-20.5376 -47.74023,-37.1808 -9.59067,-15.81007 -13.65944,-34.17765 -18.36758,-51.84774 -9.5713,27.2995 -21.3126,55.58713 -43.98146,74.69098 -16.3332,14.08568 -39.79644,19.25883 -60.45028,12.86505 -6.41316,-1.99563 -11.33443,-7.05253 -14.60881,-12.71006 -6.37441,-10.69505 -8.54442,-23.11447 -11.06319,-35.10767 -21.15759,22.01011 -47.60458,39.23457 -77.01597,47.75961 -14.89944,4.12688 -30.80639,-0.67813 -43.10958,-9.35817 -15.44195,-10.55943 -26.15636,-26.46638 -34.11954,-43.10958 -9.41629,17.61195 -21.08009,35.01079 -38.40142,45.70583 -15.92632,9.97819 -36.59954,12.41944 -54.26962,5.92879 -12.59381,-6.10316 -17.20508,-20.73135 -20.49885,-33.28641 -3.44876,-13.93068 -4.18502,-28.307 -5.61878,-42.50894 -11.14067,23.44386 -22.43634,47.89522 -42.373318,65.3328 -10.6563,9.47441 -24.373859,16.70133 -38.963299,16.15882 -6.33566,-0.0774 -12.63256,-2.34438 -17.16633,-6.82003 -11.83818,-11.14067 -22.7076099,-24.10261 -27.9388799,-39.73831 -4.90189,-14.68631 -6.85878,-30.14763 -9.57129,-45.3377 -10.7725601,27.22199 -26.0788701,53.88212 -50.1427301,71.41657 -22.649492,16.91445 -53.087753,22.95948 -80.348513,15.22882 -12.78755,-3.68126 -25.80762,-9.61004 -34.13889,-20.36322 -6.51004,-9.90066 -8.19567,-21.95197 -10.75318,-33.2864 -15.98445,2.90626 -32.25952,3.93314 -48.45711,2.20876 -5.92877,41.17207 -12.53567,82.47976 -25.09073,122.21806 -8.79629,27.97764 -23.15323,55.14151 -45.80272,74.34222 -14.08568,12.07068 -30.65139,22.97886 -49.6196,24.49011 -16.3332,0.79439 -31.34889,-9.24192 -40.04831,-22.53322 -11.9738,-17.94133 -16.83695,-40.02894 -16.33319,-61.39966 0.775,-10.8113 2.4025,-22.57198 9.76504,-31.01953 3.50688,-4.14626 9.16442,-4.72751 14.12443,-5.77376 0.75563,11.78005 -3.27438,23.17261 -3.11939,34.93328 -0.0582,13.07818 0.21313,26.9895 6.41316,38.84705 3.17752,6.56816 11.50881,10.48193 18.27071,6.74254 14.82195,-6.72316 23.57948,-21.71948 30.32201,-35.84393 4.72753,-10.46254 7.90504,-21.60321 9.35817,-32.99577 5.48315,-45.35708 13.21382,-90.40416 18.65821,-135.78062 -22.12635,-18.87134 -52.79711,-26.64075 -81.37536,-22.41698 -12.90381,1.22063 -24.14137,11.62506 -37.54893,7.69191 0.58126,-5.71565 -0.83313,-13.23319 4.78565,-16.89508 11.27629,-8.06004 25.22636,-11.14068 38.71143,-13.13631 27.6095,-3.15814 57.91214,0.91063 79.74786,19.43321 6.45191,-56.8465 12.94256,-113.71239 16.85633,-170.7914 -31.27139,-4.55316 -60.17902,-18.05759 -88.05978,-32.25953 -22.20385,-11.23755 -43.45833,-24.31574 -66.24343,-34.33266 z"
     id="path8"
     inkscape:connector-curvature="0" />
  <path
     d="m 82.714622,18.660501 c 5.3669,-3.506891 12.14818,0.310002 14.7832,5.463776 6.393778,11.353802 5.928778,25.032614 5.211898,37.645798 C 99.396582,98.427744 90.852162,134.83353 75.487722,168.37182 65.160803,190.8663 52.043863,212.33389 34.858153,230.2946 c 3.73939,-41.98582 10.36568,-83.68101 18.15447,-125.10495 4.37877,-21.8551 8.91253,-43.787702 16.4882,-64.790299 3.177509,-7.827535 6.529399,-16.21695 13.213799,-21.73885 z"
     id="path10"
     inkscape:connector-curvature="0"
     fill="transparent"
     style="fill:#ffffff;" />
  <path
     d="m 609.17456,31.506185 c 5.1344,-3.720016 11.78006,0.87188 13.15569,6.296904 4.45627,13.465688 0.50375,27.822629 -2.98376,41.055815 -8.25379,27.377006 -20.38259,53.475236 -34.04203,78.546606 1.60812,-34.31328 4.30127,-68.800936 12.14817,-102.300465 2.32502,-8.40879 4.2819,-18.135084 11.72193,-23.59886 z"
     id="path12"
     inkscape:connector-curvature="0"
     style="fill:#ffffff;" />
  <path
     d="m -198.86355,75.83639 c 3.73939,-2.964389 8.54442,-0.155001 11.83819,2.17001 13.71756,10.869425 18.1157,31.13577 11.79942,47.23647 -6.66502,17.90258 -22.45573,30.38014 -38.53705,39.60268 -1.95689,-23.34699 -1.58876,-47.21709 4.24314,-70.021573 2.01501,-6.955657 4.39815,-14.666942 10.6563,-18.987587 z"
     id="path14"
     inkscape:connector-curvature="0"
     style="fill:#ffffff;" />
  <path
     style="fill:#060807;fill-rule:evenodd;stroke:#060807;stroke-width:3.87501788;stroke-linecap:round;stroke-linejoin:round;stroke-miterlimit:4;stroke-dasharray:none;stroke-opacity:1"
     d="m 157.5606,178.62124 c 8.19566,-1.20126 16.19757,2.55751 23.59885,5.6769 5.48316,2.86751 12.34194,6.33565 13.71758,12.98131 0.23249,8.97067 -2.07315,17.8057 -4.70816,26.33074 -11.12129,-0.52312 -23.50198,-0.75563 -32.86015,-7.51753 -7.78878,-10.52067 -10.48192,-27.91951 0.25188,-37.47142 z"
     id="path16"
     inkscape:connector-curvature="0" />
  <path
     style="fill:#060807;fill-rule:evenodd;stroke:#060807;stroke-width:3.87501788;stroke-linecap:round;stroke-linejoin:round;stroke-miterlimit:4;stroke-dasharray:none;stroke-opacity:1"
     d="m 427.95935,177.26499 c 13.2138,3.08063 29.45013,5.8319 36.98704,18.44508 0.94939,8.02128 -0.77501,16.35257 -3.25501,24.00574 -1.74376,5.38627 -8.21504,3.66189 -12.43881,3.42938 -7.28503,-1.18188 -14.97694,-2.36376 -21.19635,-6.54877 -4.96002,-5.7544 -6.91691,-13.65944 -7.28504,-21.09948 -0.42625,-6.87816 3.70065,-12.69068 7.18817,-18.23195 z"
     id="path18"
     inkscape:connector-curvature="0" />
  <path
     d="m -113.38065,303.16431 c 4.39814,-6.20002 14.511941,-5.96753 19.278211,-0.31 5.69628,6.49065 6.52941,15.92632 4.80503,24.10261 -2.20877,11.37317 -6.82004,23.21136 -16.546331,30.22515 -7.80816,5.81252 -17.78633,6.95564 -27.14451,8.25378 2.67377,-21.56448 5.79316,-44.64021 19.6076,-62.27154 z"
     id="path20"
     inkscape:connector-curvature="0"
     style="fill:#ffffff;" />
  <path
     d="m 720.46508,540.3154 c 14.62819,-29.392 35.22391,-55.54838 58.76464,-78.31411 2.49938,43.4777 6.83941,87.12978 3.04189,130.68498 -1.97626,19.47196 -4.94065,39.48644 -14.43444,56.88527 -5.09566,9.57129 -13.58194,17.24382 -23.77323,21.02197 -9.16442,3.60376 -20.2276,6.39378 -29.3339,1.20125 -8.64128,-5.21189 -11.78005,-15.69382 -12.98131,-25.11012 -4.82439,-36.30891 2.30564,-73.74158 18.71635,-106.36924 z"
     id="path22"
     inkscape:connector-curvature="0"
     style="fill:#ffffff;" />
  <!-- <path fill="#060808" d=" M 434.63 517.62 C 441.81 513.43 452.07 512.63 458.64 518.40 C 465.56 524.98 465.55 536.13 461.11 544.10 C 452.10 559.96 443.26 575.96 435.89 592.66 C 440.93 592.73 445.91 593.60 450.73 595.08 C 456.25 596.73 462.06 596.43 467.69 595.63 C 467.73 597.12 467.76 598.62 467.79 600.13 C 463.33 602.41 458.28 604.27 453.22 602.97 C 447.53 601.45 441.48 600.16 435.67 601.90 C 432.94 602.43 430.27 604.21 427.45 603.64 C 423.82 601.70 422.18 597.00 422.83 593.09 C 423.86 587.93 426.25 583.19 428.39 578.43 C 434.67 565.13 441.72 552.21 447.84 538.84 C 449.64 534.69 451.67 530.51 452.26 525.98 C 452.74 522.85 449.88 520.12 446.90 519.88 C 442.16 519.54 437.50 521.94 434.38 525.41 C 431.54 528.40 432.18 532.85 431.52 536.61 C 429.81 536.13 427.27 536.00 426.96 533.79 C 425.50 527.43 429.04 520.73 434.63 517.62 Z" />
<path fill="#060807" d=" M 555.43 514.49 C 557.85 513.65 559.60 516.39 561.07 517.91 C 566.87 525.67 565.59 535.95 564.96 545.00 C 564.55 560.12 564.21 575.27 562.58 590.32 C 562.07 593.97 561.85 597.80 560.23 601.17 C 558.97 603.39 555.78 603.94 553.97 602.08 C 549.48 597.74 548.21 591.10 548.22 585.07 C 548.10 567.66 549.61 550.28 551.16 532.95 C 551.81 529.84 549.31 527.55 548.35 524.84 C 548.99 520.65 551.40 516.23 555.43 514.49 Z" />
<path fill="#060807" d=" M 577.93 515.87 C 581.37 514.26 585.26 514.17 588.98 513.85 C 595.62 513.60 602.31 513.43 608.92 514.30 C 612.51 514.78 616.41 516.35 618.06 519.81 C 620.16 524.22 619.04 529.27 617.67 533.72 C 611.15 553.95 604.17 574.05 598.52 594.55 C 597.32 598.36 597.12 602.66 594.72 605.99 C 588.73 606.17 583.42 599.94 584.94 594.00 C 587.07 577.93 591.49 562.19 597.09 546.99 C 600.38 537.85 605.16 529.38 609.34 520.65 C 603.58 520.34 597.80 520.10 592.04 520.45 C 586.76 520.76 581.54 522.05 576.23 521.44 C 576.71 519.55 577.06 517.62 577.93 515.87 Z" />
<path fill="#060807" d=" M 509.48 515.58 C 511.05 515.21 512.79 515.09 514.28 515.85 C 516.32 517.06 515.31 519.67 514.36 521.28 C 511.87 525.12 507.55 527.17 504.60 530.60 C 496.77 539.37 493.75 551.50 493.87 563.03 C 494.23 571.46 495.86 580.21 500.71 587.28 C 503.08 590.81 507.20 593.71 511.63 592.80 C 518.50 591.38 523.83 585.82 526.63 579.60 C 531.03 569.69 531.17 558.21 528.17 547.89 C 526.51 542.51 523.89 537.09 519.31 533.63 C 516.17 531.30 512.10 531.20 508.57 529.85 C 509.03 528.59 509.54 527.32 510.45 526.32 C 517.92 525.12 525.45 529.23 529.83 535.15 C 534.17 541.14 536.71 548.50 536.68 555.92 C 536.90 565.84 535.78 576.16 531.04 585.04 C 527.67 591.43 522.03 596.80 515.06 599.00 C 506.02 601.83 495.20 599.37 488.92 592.08 C 483.29 585.64 481.01 576.98 480.30 568.63 C 479.59 557.24 480.48 545.47 484.96 534.86 C 489.31 524.87 499.29 518.44 509.48 515.58 Z" /> -->
</svg>
